<svg width="46" height="46" fill="none" xmlns="http://www.w3.org/2000/svg"><path fill-rule="evenodd" clip-rule="evenodd" d="M9 .6a2.8 2.8 0 0 1 2.8 2.8v2.8h2.8a2.8 2.8 0 1 1 0 5.6h-2.8v2.8a2.8 2.8 0 1 1-5.6 0v-2.8H3.4a2.8 2.8 0 0 1 0-5.6h2.8V3.4A2.8 2.8 0 0 1 9 .6Zm0 28a2.8 2.8 0 0 1 2.8 2.8v2.8h2.8a2.8 2.8 0 1 1 0 5.6h-2.8v2.8a2.8 2.8 0 1 1-5.6 0v-2.8H3.4a2.8 2.8 0 1 1 0-5.6h2.8v-2.8A2.8 2.8 0 0 1 9 28.6ZM28.6.6a2.8 2.8 0 0 1 2.7 2.08l3.3 12.48 9.4 5.41a2.8 2.8 0 0 1 0 4.86l-9.4 5.41-3.3 12.48a2.8 2.8 0 0 1-5.4 0l-3.3-12.48-9.4-5.41a2.8 2.8 0 0 1 0-4.86l9.4-5.41 3.3-12.48A2.8 2.8 0 0 1 28.6.6Z" fill="#FF7500"/></svg>